<?xml version="1.0" encoding="UTF-8" standalone="no"?>
<!DOCTYPE svg PUBLIC "-//W3C//DTD SVG 1.0//EN"
 "http://www.w3.org/TR/2001/REC-SVG-20010904/DTD/svg10.dtd">
<!-- Generated by circo version 1.16 (Mon Sep  8 09:23:59 GMT 2008)
     For user: (adrianneumann) Adrian Neumann   Title: G    Pages: 1 -->
<svg width="346pt" height="289pt"
 viewBox = "-1 -1 345 288"
 xmlns="http://www.w3.org/2000/svg">
<g id="graph0" class="graph" style="font-family:Times-Roman;font-size:14.00;">
<title>G</title>
<g id="node1" class="node"><title>v2</title>
<ellipse cx="33" cy="209" rx="27" ry="18" style="fill:none;stroke:black;"/>
<text text-anchor="middle" x="33" y="214">v&#39;</text>
</g>
<g id="node2" class="node"><title>v</title>
<ellipse cx="235" cy="209" rx="27" ry="18" style="fill:none;stroke:black;"/>
<text text-anchor="middle" x="235" y="214">v</text>
</g>
<g id="edge8" class="edge"><title>v2&#45;&gt;v</title>
<path style="fill:none;stroke:black;" d="M60,209C106,209 152,209 198,209"/>
<polygon style="fill:black;stroke:black;" points="198,205 208,209 198,212 198,205"/>
</g>
<g id="node11" class="node"><title>a2</title>
<ellipse cx="309" cy="278" rx="2" ry="2" style="fill:black;stroke:black;"/>
</g>
<g id="edge10" class="edge"><title>v&#45;&gt;a2</title>
<path style="fill:none;stroke:black;" d="M251,224C266,239 283,254 299,269"/>
<polygon style="fill:black;stroke:black;" points="302,267 307,276 297,272 302,267"/>
</g>
<g id="node13" class="node"><title>b2</title>
<ellipse cx="336" cy="209" rx="2" ry="2" style="fill:black;stroke:black;"/>
</g>
<g id="edge12" class="edge"><title>v&#45;&gt;b2</title>
<path style="fill:none;stroke:black;" d="M262,209C283,209 303,209 324,209"/>
<polygon style="fill:black;stroke:black;" points="324,205 334,209 324,212 324,205"/>
</g>
<g id="node15" class="node"><title>c2</title>
<ellipse cx="309" cy="140" rx="2" ry="2" style="fill:black;stroke:black;"/>
</g>
<g id="edge14" class="edge"><title>v&#45;&gt;c2</title>
<path style="fill:none;stroke:black;" d="M251,194C266,179 283,164 299,149"/>
<polygon style="fill:black;stroke:black;" points="297,146 307,142 302,151 297,146"/>
</g>
<g id="node3" class="node"><title>a</title>
<ellipse cx="162" cy="54" rx="2" ry="2" style="fill:black;stroke:black;"/>
</g>
<g id="edge2" class="edge"><title>a&#45;&gt;v2</title>
<path style="fill:none;stroke:black;" d="M160,56C124,98 88,143 52,185"/>
<polygon style="fill:black;stroke:black;" points="55,187 46,193 49,183 55,187"/>
</g>
<g id="node5" class="node"><title>b</title>
<ellipse cx="96" cy="17" rx="2" ry="2" style="fill:black;stroke:black;"/>
</g>
<g id="edge4" class="edge"><title>b&#45;&gt;v2</title>
<path style="fill:none;stroke:black;" d="M95,19C78,73 60,127 42,181"/>
<polygon style="fill:black;stroke:black;" points="45,182 39,191 39,180 45,182"/>
</g>
<g id="node7" class="node"><title>c</title>
<ellipse cx="21" cy="7" rx="2" ry="2" style="fill:black;stroke:black;"/>
</g>
<g id="edge6" class="edge"><title>c&#45;&gt;v2</title>
<path style="fill:none;stroke:black;" d="M21,9C25,67 28,124 31,181"/>
<polygon style="fill:black;stroke:black;" points="34,181 32,191 28,181 34,181"/>
</g>
</g>
</svg>
