<?xml version="1.0" encoding="UTF-8" standalone="no"?>
<!DOCTYPE svg PUBLIC "-//W3C//DTD SVG 1.0//EN"
 "http://www.w3.org/TR/2001/REC-SVG-20010904/DTD/svg10.dtd">
<!-- Generated by circo version 1.16 (Mon Sep  8 09:23:59 GMT 2008)
     For user: (adrianneumann) Adrian Neumann   Title: G    Pages: 1 -->
<svg width="418pt" height="406pt"
 viewBox = "-1 -1 417 405"
 xmlns="http://www.w3.org/2000/svg">
<g id="graph0" class="graph" style="font-family:Times-Roman;font-size:14.00;">
<title>G</title>
<g id="node2" class="node"><title>a</title>
<ellipse cx="341" cy="317" rx="27" ry="18" style="fill:none;stroke:black;"/>
<text text-anchor="middle" x="341" y="322">a</text>
</g>
<g id="node4" class="node"><title>b</title>
<ellipse cx="383" cy="201" rx="27" ry="18" style="fill:none;stroke:black;"/>
<text text-anchor="middle" x="383" y="206">b</text>
</g>
<g id="edge3" class="edge"><title>a&#45;&#45;b</title>
<path style="fill:none;stroke:black;" d="M347,300C357,273 367,245 376,219"/>
</g>
<g id="node6" class="node"><title>c</title>
<ellipse cx="234" cy="23" rx="27" ry="18" style="fill:none;stroke:black;"/>
<text text-anchor="middle" x="234" y="28">c</text>
</g>
<g id="edge5" class="edge"><title>a&#45;&#45;c</title>
<path style="fill:none;stroke:black;" d="M335,299C304,213 271,127 240,41"/>
</g>
<g id="node8" class="node"><title>d</title>
<ellipse cx="113" cy="45" rx="27" ry="18" style="fill:none;stroke:black;"/>
<text text-anchor="middle" x="113" y="50">d</text>
</g>
<g id="edge7" class="edge"><title>a&#45;&#45;d</title>
<path style="fill:none;stroke:black;" d="M328,301C261,221 194,141 126,61"/>
</g>
<g id="node10" class="node"><title>e</title>
<ellipse cx="341" cy="85" rx="27" ry="18" style="fill:none;stroke:black;"/>
<text text-anchor="middle" x="341" y="90">e</text>
</g>
<g id="edge9" class="edge"><title>a&#45;&#45;e</title>
<path style="fill:none;stroke:black;" d="M341,299C341,234 341,168 341,103"/>
</g>
<g id="node18" class="node"><title>f</title>
<ellipse cx="234" cy="379" rx="27" ry="18" style="fill:none;stroke:black;"/>
<text text-anchor="middle" x="234" y="384">f</text>
</g>
<g id="edge36" class="edge"><title>a&#45;&#45;f</title>
<path style="fill:none;stroke:black;" d="M320,329C299,342 276,355 255,367"/>
</g>
<g id="edge11" class="edge"><title>b&#45;&#45;c</title>
<path style="fill:none;stroke:black;" d="M370,185C329,136 288,88 247,39"/>
</g>
<g id="edge13" class="edge"><title>b&#45;&#45;d</title>
<path style="fill:none;stroke:black;" d="M362,189C286,145 210,101 133,57"/>
</g>
<g id="edge15" class="edge"><title>b&#45;&#45;e</title>
<path style="fill:none;stroke:black;" d="M377,184C367,157 357,129 348,103"/>
</g>
<g id="node20" class="node"><title>g</title>
<ellipse cx="113" cy="357" rx="27" ry="18" style="fill:none;stroke:black;"/>
<text text-anchor="middle" x="113" y="362">g</text>
</g>
<g id="edge38" class="edge"><title>b&#45;&#45;g</title>
<path style="fill:none;stroke:black;" d="M362,213C286,257 210,301 133,345"/>
</g>
<g id="edge17" class="edge"><title>c&#45;&#45;d</title>
<path style="fill:none;stroke:black;" d="M208,28C185,32 162,36 139,40"/>
</g>
<g id="edge19" class="edge"><title>c&#45;&#45;e</title>
<path style="fill:none;stroke:black;" d="M255,35C276,48 299,61 320,73"/>
</g>
<g id="node22" class="node"><title>h</title>
<ellipse cx="33" cy="263" rx="27" ry="18" style="fill:none;stroke:black;"/>
<text text-anchor="middle" x="33" y="268">h</text>
</g>
<g id="edge40" class="edge"><title>c&#45;&#45;h</title>
<path style="fill:none;stroke:black;" d="M221,39C162,109 105,178 46,247"/>
</g>
<g id="edge21" class="edge"><title>d&#45;&#45;e</title>
<path style="fill:none;stroke:black;" d="M139,50C198,60 256,70 315,80"/>
</g>
<g id="node24" class="node"><title>i</title>
<ellipse cx="33" cy="139" rx="27" ry="18" style="fill:none;stroke:black;"/>
<text text-anchor="middle" x="33" y="144">i</text>
</g>
<g id="edge42" class="edge"><title>d&#45;&#45;i</title>
<path style="fill:none;stroke:black;" d="M100,61C82,82 64,102 47,123"/>
</g>
<g id="edge24" class="edge"><title>f&#45;&#45;g</title>
<path style="fill:none;stroke:black;" d="M208,374C185,370 162,366 139,362"/>
</g>
<g id="edge26" class="edge"><title>f&#45;&#45;h</title>
<path style="fill:none;stroke:black;" d="M213,367C160,337 107,305 54,275"/>
</g>
<g id="edge28" class="edge"><title>f&#45;&#45;i</title>
<path style="fill:none;stroke:black;" d="M221,363C162,293 105,224 46,155"/>
</g>
<g id="edge30" class="edge"><title>g&#45;&#45;h</title>
<path style="fill:none;stroke:black;" d="M100,341C82,320 64,300 47,279"/>
</g>
<g id="edge32" class="edge"><title>g&#45;&#45;i</title>
<path style="fill:none;stroke:black;" d="M107,339C84,279 61,217 39,157"/>
</g>
<g id="edge34" class="edge"><title>h&#45;&#45;i</title>
<path style="fill:none;stroke:black;" d="M33,245C33,216 33,186 33,157"/>
</g>
</g>
</svg>
