<?xml version="1.0" encoding="UTF-8" standalone="no"?>
<!DOCTYPE svg PUBLIC "-//W3C//DTD SVG 1.0//EN"
 "http://www.w3.org/TR/2001/REC-SVG-20010904/DTD/svg10.dtd">
<!-- Generated by circo version 1.16 (Mon Sep  8 09:23:59 GMT 2008)
     For user: (adrianneumann) Adrian Neumann   Title: G    Pages: 1 -->
<svg width="282pt" height="272pt"
 viewBox = "-1 -1 281 271"
 xmlns="http://www.w3.org/2000/svg">
<g id="graph0" class="graph" style="font-family:Times-Roman;font-size:14.00;">
<title>G</title>
<g id="node2" class="node"><title>a</title>
<ellipse cx="101" cy="244" rx="11" ry="11" style="fill:black;stroke:black;"/>
</g>
<g id="node4" class="node"><title>b</title>
<ellipse cx="153" cy="173" rx="11" ry="11" style="fill:black;stroke:black;"/>
</g>
<g id="edge3" class="edge"><title>a&#45;&#45;b</title>
<path style="fill:none;stroke:black;" d="M108,235C121,218 134,199 146,182"/>
</g>
<g id="node6" class="node"><title>c</title>
<ellipse cx="17" cy="129" rx="11" ry="11" style="fill:black;stroke:black;"/>
</g>
<g id="edge5" class="edge"><title>a&#45;&#45;c</title>
<path style="fill:none;stroke:black;" d="M94,235C71,203 47,170 24,138"/>
</g>
<g id="node8" class="node"><title>d</title>
<ellipse cx="101" cy="102" rx="11" ry="11" style="fill:black;stroke:black;"/>
</g>
<g id="edge7" class="edge"><title>a&#45;&#45;d</title>
<path style="fill:none;stroke:black;" d="M101,233C101,194 101,153 101,113"/>
</g>
<g id="node10" class="node"><title>e</title>
<ellipse cx="17" cy="217" rx="11" ry="11" style="fill:black;stroke:black;"/>
</g>
<g id="edge9" class="edge"><title>a&#45;&#45;e</title>
<path style="fill:none;stroke:black;" d="M91,241C70,234 49,227 27,220"/>
</g>
<g id="edge11" class="edge"><title>b&#45;&#45;c</title>
<path style="fill:none;stroke:black;" d="M142,170C105,158 65,145 28,132"/>
</g>
<g id="edge13" class="edge"><title>b&#45;&#45;d</title>
<path style="fill:none;stroke:black;" d="M146,164C133,147 120,128 108,111"/>
</g>
<g id="edge15" class="edge"><title>b&#45;&#45;e</title>
<path style="fill:none;stroke:black;" d="M142,176C105,188 65,201 28,214"/>
</g>
<g id="edge17" class="edge"><title>c&#45;&#45;d</title>
<path style="fill:none;stroke:black;" d="M28,126C49,119 70,112 91,105"/>
</g>
<g id="edge19" class="edge"><title>c&#45;&#45;e</title>
<path style="fill:none;stroke:black;" d="M17,140C17,162 17,184 17,206"/>
</g>
<g id="edge21" class="edge"><title>d&#45;&#45;e</title>
<path style="fill:none;stroke:black;" d="M94,111C71,143 47,176 24,208"/>
</g>
<g id="node18" class="node"><title>f</title>
<ellipse cx="203" cy="136" rx="11" ry="11" style="fill:black;stroke:black;"/>
</g>
<g id="node20" class="node"><title>g</title>
<ellipse cx="263" cy="76" rx="11" ry="11" style="fill:black;stroke:black;"/>
</g>
<g id="edge24" class="edge"><title>f&#45;&#45;g</title>
<path style="fill:none;stroke:black;" d="M211,128C225,114 240,99 255,84"/>
</g>
<g id="node22" class="node"><title>h</title>
<ellipse cx="203" cy="16" rx="11" ry="11" style="fill:black;stroke:black;"/>
</g>
<g id="edge26" class="edge"><title>f&#45;&#45;h</title>
<path style="fill:none;stroke:black;" d="M203,125C203,92 203,60 203,27"/>
</g>
<g id="node24" class="node"><title>i</title>
<ellipse cx="143" cy="76" rx="11" ry="11" style="fill:black;stroke:black;"/>
</g>
<g id="edge28" class="edge"><title>f&#45;&#45;i</title>
<path style="fill:none;stroke:black;" d="M195,128C181,114 166,99 151,84"/>
</g>
<g id="edge30" class="edge"><title>g&#45;&#45;h</title>
<path style="fill:none;stroke:black;" d="M255,68C241,54 226,39 211,24"/>
</g>
<g id="edge32" class="edge"><title>g&#45;&#45;i</title>
<path style="fill:none;stroke:black;" d="M252,76C220,76 187,76 154,76"/>
</g>
<g id="edge34" class="edge"><title>h&#45;&#45;i</title>
<path style="fill:none;stroke:black;" d="M195,24C181,38 166,53 151,68"/>
</g>
</g>
</svg>
