<?xml version="1.0" encoding="UTF-8" standalone="no"?>
<!DOCTYPE svg PUBLIC "-//W3C//DTD SVG 1.0//EN"
 "http://www.w3.org/TR/2001/REC-SVG-20010904/DTD/svg10.dtd">
<!-- Generated by circo version 1.16 (Mon Sep  8 09:23:59 GMT 2008)
     For user: (adrianneumann) Adrian Neumann   Title: G    Pages: 1 -->
<svg width="169pt" height="160pt"
 viewBox = "-1 -1 168 159"
 xmlns="http://www.w3.org/2000/svg">
<g id="graph0" class="graph" style="font-family:Times-Roman;font-size:14.00;">
<title>G</title>
<g id="node1" class="node"><title>a</title>
<ellipse cx="83" cy="76" rx="2" ry="2" style="fill:black;stroke:black;"/>
</g>
<g id="node3" class="node"><title>b</title>
<ellipse cx="159" cy="76" rx="2" ry="2" style="fill:black;stroke:black;"/>
</g>
<g id="edge2" class="edge"><title>a&#45;&gt;b</title>
<path style="fill:none;stroke:black;" d="M85,76C105,76 126,76 147,76"/>
<polygon style="fill:black;stroke:black;" points="147,72 157,76 147,79 147,72"/>
</g>
<g id="node5" class="node"><title>c</title>
<ellipse cx="124" cy="12" rx="2" ry="2" style="fill:black;stroke:black;"/>
</g>
<g id="edge4" class="edge"><title>a&#45;&gt;c</title>
<path style="fill:none;stroke:black;" d="M84,74C95,58 106,39 117,23"/>
<polygon style="fill:black;stroke:black;" points="115,20 123,14 120,24 115,20"/>
</g>
<g id="node7" class="node"><title>d</title>
<ellipse cx="51" cy="7" rx="2" ry="2" style="fill:black;stroke:black;"/>
</g>
<g id="edge6" class="edge"><title>a&#45;&gt;d</title>
<path style="fill:none;stroke:black;" d="M82,74C73,56 65,37 56,18"/>
<polygon style="fill:black;stroke:black;" points="53,20 52,9 59,17 53,20"/>
</g>
<g id="node8" class="node"><title>e</title>
<ellipse cx="8" cy="65" rx="2" ry="2" style="fill:black;stroke:black;"/>
</g>
<g id="edge8" class="edge"><title>e&#45;&gt;a</title>
<path style="fill:none;stroke:black;" d="M10,65C30,68 50,72 71,75"/>
<polygon style="fill:black;stroke:black;" points="71,72 81,76 71,78 71,72"/>
</g>
<g id="node10" class="node"><title>f</title>
<ellipse cx="33" cy="134" rx="2" ry="2" style="fill:black;stroke:black;"/>
</g>
<g id="edge10" class="edge"><title>f&#45;&gt;a</title>
<path style="fill:none;stroke:black;" d="M35,132C48,118 62,101 75,86"/>
<polygon style="fill:black;stroke:black;" points="73,83 82,78 78,88 73,83"/>
</g>
<g id="node12" class="node"><title>g</title>
<ellipse cx="105" cy="149" rx="2" ry="2" style="fill:black;stroke:black;"/>
</g>
<g id="edge12" class="edge"><title>g&#45;&gt;a</title>
<path style="fill:none;stroke:black;" d="M104,147C99,128 92,108 87,88"/>
<polygon style="fill:black;stroke:black;" points="84,89 84,78 90,87 84,89"/>
</g>
</g>
</svg>
