<?xml version="1.0" encoding="UTF-8" standalone="no"?>
<!-- Generated by circo version 1.16 (Mon Sep  8 09:23:59 GMT 2008)
     For user: (adrianneumann) Adrian Neumann   Title: G    Pages: 1 -->

<svg
   xmlns:dc="http://purl.org/dc/elements/1.1/"
   xmlns:cc="http://creativecommons.org/ns#"
   xmlns:rdf="http://www.w3.org/1999/02/22-rdf-syntax-ns#"
   xmlns:svg="http://www.w3.org/2000/svg"
   xmlns="http://www.w3.org/2000/svg"
   xmlns:sodipodi="http://sodipodi.sourceforge.net/DTD/sodipodi-0.dtd"
   xmlns:inkscape="http://www.inkscape.org/namespaces/inkscape"
   width="192pt"
   height="170pt"
   viewBox="-1 -1 191 169"
   id="svg3344"
   version="1.1"
   inkscape:version="0.47+devel r9327"
   sodipodi:docname="k6.svg">
  <metadata
     id="metadata3508">
    <rdf:RDF>
      <cc:Work
         rdf:about="">
        <dc:format>image/svg+xml</dc:format>
        <dc:type
           rdf:resource="http://purl.org/dc/dcmitype/StillImage" />
      </cc:Work>
    </rdf:RDF>
  </metadata>
  <defs
     id="defs3506" />
  <sodipodi:namedview
     pagecolor="#ffffff"
     bordercolor="#666666"
     borderopacity="1"
     objecttolerance="10"
     gridtolerance="10"
     guidetolerance="10"
     inkscape:pageopacity="0"
     inkscape:pageshadow="2"
     inkscape:window-width="1326"
     inkscape:window-height="861"
     id="namedview3504"
     showgrid="false"
     inkscape:zoom="3.2441614"
     inkscape:cx="120.62827"
     inkscape:cy="69.888743"
     inkscape:window-x="0"
     inkscape:window-y="0"
     inkscape:window-maximized="0"
     inkscape:current-layer="svg3344" />
  <g
     id="graph0"
     class="graph"
     style="font-family:Times-Roman;font-size:14.00;">
    <title
       id="title3347">G</title>
    <g
       id="node1"
       class="node">
      <title
         id="title3350">a</title>
      <ellipse
         cx="136"
         cy="154"
         rx="7"
         ry="7"
         style="fill:black;stroke:black;"
         id="ellipse3352" />
    </g>
    <g
       id="node3"
       class="node">
      <title
         id="title3355">b</title>
      <ellipse
         cx="177"
         cy="83"
         rx="7"
         ry="7"
         style="fill:black;stroke:black;"
         id="ellipse3357" />
    </g>
    <g
       id="edge2"
       class="edge">
      <title
         id="title3360">a--b</title>
      <path
         style="fill:none;stroke:black;"
         d="M140,148C151,129 162,108 173,89"
         id="path3362" />
    </g>
    <g
       id="node5"
       class="node">
      <title
         id="title3365">c</title>
      <ellipse
         cx="13"
         cy="83"
         rx="7"
         ry="7"
         style="fill:black;stroke:black;"
         id="ellipse3367" />
    </g>
    <g
       id="edge4"
       class="edge">
      <title
         id="title3370">a--c</title>
      <path
         style="fill:none;stroke:black;"
         d="M130,150C93,129 56,108 19,87"
         id="path3372" />
    </g>
    <g
       id="node7"
       class="node">
      <title
         id="title3375">d</title>
      <ellipse
         cx="54"
         cy="12"
         rx="7"
         ry="7"
         style="fill:black;stroke:black;"
         id="ellipse3377" />
    </g>
    <g
       id="edge6"
       class="edge">
      <title
         id="title3380">a--d</title>
      <path
         style="fill:none;stroke:black;"
         d="M132,148C107,105 82,61 58,18"
         id="path3382" />
    </g>
    <g
       id="node9"
       class="node">
      <title
         id="title3385">e</title>
      <ellipse
         cx="136"
         cy="12"
         rx="7"
         ry="7"
         style="fill:black;stroke:black;"
         id="ellipse3387" />
    </g>
    <g
       id="edge8"
       class="edge">
      <title
         id="title3390">a--e</title>
      <path
         style="fill:none;stroke:black;"
         d="M136,147C136,104 136,62 136,19"
         id="path3392" />
    </g>
    <g
       id="node11"
       class="node">
      <title
         id="title3395">f</title>
      <ellipse
         cx="54"
         cy="154"
         rx="7"
         ry="7"
         style="fill:black;stroke:black;"
         id="ellipse3397" />
    </g>
    <g
       id="edge10"
       class="edge">
      <title
         id="title3400">a--f</title>
      <path
         style="fill:none;stroke:black;"
         d="M129,154C106,154 84,154 61,154"
         id="path3402" />
    </g>
    <g
       id="edge12"
       class="edge">
      <title
         id="title3405">b--a</title>
      <path
         style="fill:none;stroke:black;"
         d="M173,89C162,108 151,129 140,148"
         id="path3407" />
    </g>
    <g
       id="edge14"
       class="edge">
      <title
         id="title3410">b--c</title>
      <path
         style="fill:none;stroke:black;"
         d="M170,83C120,83 70,83 20,83"
         id="path3412" />
    </g>
    <g
       id="edge16"
       class="edge">
      <title
         id="title3415">b--d</title>
      <path
         style="fill:none;stroke:black;"
         d="M171,79C134,58 97,37 60,16"
         id="path3417" />
    </g>
    <g
       id="edge18"
       class="edge">
      <title
         id="title3420">b--e</title>
      <path
         style="fill:none;stroke:black;"
         d="M173,77C162,58 151,37 140,18"
         id="path3422" />
    </g>
    <g
       id="edge20"
       class="edge">
      <title
         id="title3425">b--f</title>
      <path
         style="fill:none;stroke:black;"
         d="M171,87C134,108 97,129 60,150"
         id="path3427" />
    </g>
    <g
       id="edge22"
       class="edge">
      <title
         id="title3430">c--a</title>
      <path
         style="fill:none;stroke:black;"
         d="M19,87C56,108 93,129 130,150"
         id="path3432" />
    </g>
    <g
       id="edge24"
       class="edge">
      <title
         id="title3435">c--b</title>
      <path
         style="fill:none;stroke:black;"
         d="M20,83C70,83 120,83 170,83"
         id="path3437" />
    </g>
    <g
       id="edge26"
       class="edge">
      <title
         id="title3440">c--d</title>
      <path
         style="fill:none;stroke:black;"
         d="M17,77C28,58 39,37 50,18"
         id="path3442" />
    </g>
    <g
       id="edge28"
       class="edge">
      <title
         id="title3445">c--e</title>
      <path
         style="fill:none;stroke:black;"
         d="M19,79C56,58 93,37 130,16"
         id="path3447" />
    </g>
    <g
       id="edge30"
       class="edge">
      <title
         id="title3450">c--f</title>
      <path
         style="fill:none;stroke:black;"
         d="M17,89C28,108 39,129 50,148"
         id="path3452" />
    </g>
    <g
       id="edge32"
       class="edge">
      <title
         id="title3455">e--a</title>
      <path
         style="fill:none;stroke:black;"
         d="M136,19C136,62 136,104 136,147"
         id="path3457" />
    </g>
    <g
       id="edge34"
       class="edge">
      <title
         id="title3460">e--b</title>
      <path
         style="fill:none;stroke:black;"
         d="M140,18C151,37 162,58 173,77"
         id="path3462" />
    </g>
    <g
       id="edge36"
       class="edge">
      <title
         id="title3465">e--c</title>
      <path
         style="fill:none;stroke:black;"
         d="M130,16C93,37 56,58 19,79"
         id="path3467" />
    </g>
    <g
       id="edge38"
       class="edge">
      <title
         id="title3470">e--d</title>
      <path
         style="fill:none;stroke:black;"
         d="M129,12C106,12 84,12 61,12"
         id="path3472" />
    </g>
    <g
       id="edge40"
       class="edge">
      <title
         id="title3475">e--f</title>
      <path
         style="fill:none;stroke:black;"
         d="M132,18C107,61 82,105 58,148"
         id="path3477" />
    </g>
    <g
       id="edge42"
       class="edge">
      <title
         id="title3480">f--a</title>
      <path
         style="fill:none;stroke:black;"
         d="M61,154C84,154 106,154 129,154"
         id="path3482" />
    </g>
    <g
       id="edge44"
       class="edge">
      <title
         id="title3485">f--b</title>
      <path
         style="fill:none;stroke:black;"
         d="M60,150C97,129 134,108 171,87"
         id="path3487" />
    </g>
    <g
       id="edge46"
       class="edge">
      <title
         id="title3490">f--c</title>
      <path
         style="fill:none;stroke:black;"
         d="M50,148C39,129 28,108 17,89"
         id="path3492" />
    </g>
    <g
       id="edge48"
       class="edge">
      <title
         id="title3495">f--d</title>
      <path
         style="fill:none;stroke:black;"
         d="M54,147C54,104 54,62 54,19"
         id="path3497" />
    </g>
    <g
       id="edge50"
       class="edge">
      <title
         id="title3500">f--e</title>
      <path
         style="fill:none;stroke:black;"
         d="M58,148C83,105 108,61 132,18"
         id="path3502" />
    </g>
  </g>
</svg>
