<?xml version="1.0" encoding="UTF-8" standalone="no"?>
<!DOCTYPE svg PUBLIC "-//W3C//DTD SVG 1.0//EN"
 "http://www.w3.org/TR/2001/REC-SVG-20010904/DTD/svg10.dtd">
<!-- Generated by circo version 1.16 (Mon Sep  8 09:23:59 GMT 2008)
     For user: (adrianneumann) Adrian Neumann   Title: G    Pages: 1 -->
<svg width="410pt" height="366pt"
 viewBox = "-1 -1 409 365"
 xmlns="http://www.w3.org/2000/svg">
<g id="graph0" class="graph" style="font-family:Times-Roman;font-size:14.00;">
<title>G</title>
<g id="node2" class="node"><title>a</title>
<ellipse cx="295" cy="183" rx="27" ry="18" style="fill:none;stroke:black;"/>
<text text-anchor="middle" x="295" y="188">a</text>
</g>
<g id="node4" class="node"><title>b</title>
<ellipse cx="215" cy="103" rx="27" ry="18" style="fill:none;stroke:black;"/>
<text text-anchor="middle" x="215" y="108">b</text>
</g>
<g id="edge3" class="edge"><title>a&#45;&gt;b</title>
<path style="fill:none;stroke:black;" d="M280,168C266,154 251,139 237,125"/>
<polygon style="fill:black;stroke:black;" points="235,128 230,118 240,123 235,128"/>
<text text-anchor="middle" x="277" y="148">1</text>
</g>
<g id="node6" class="node"><title>c</title>
<ellipse cx="295" cy="23" rx="27" ry="18" style="fill:none;stroke:black;"/>
<text text-anchor="middle" x="295" y="28">c</text>
</g>
<g id="edge11" class="edge"><title>a&#45;&gt;c</title>
<path style="fill:none;stroke:black;" d="M295,165C295,127 295,89 295,51"/>
<polygon style="fill:black;stroke:black;" points="292,51 295,41 299,51 292,51"/>
<text text-anchor="middle" x="317" y="108">5</text>
</g>
<g id="edge5" class="edge"><title>b&#45;&gt;c</title>
<path style="fill:none;stroke:black;" d="M230,88C244,74 259,59 273,45"/>
<polygon style="fill:black;stroke:black;" points="270,43 280,38 275,48 270,43"/>
<text text-anchor="middle" x="277" y="68">2</text>
</g>
<g id="node8" class="node"><title>d</title>
<ellipse cx="375" cy="103" rx="27" ry="18" style="fill:none;stroke:black;"/>
<text text-anchor="middle" x="375" y="108">d</text>
</g>
<g id="edge7" class="edge"><title>c&#45;&gt;d</title>
<path style="fill:none;stroke:black;" d="M310,38C324,52 339,67 353,81"/>
<polygon style="fill:black;stroke:black;" points="355,78 360,88 350,83 355,78"/>
<text text-anchor="middle" x="357" y="68">3</text>
</g>
<g id="edge9" class="edge"><title>d&#45;&gt;a</title>
<path style="fill:none;stroke:black;" d="M360,118C346,132 331,147 317,161"/>
<polygon style="fill:black;stroke:black;" points="320,163 310,168 315,158 320,163"/>
<text text-anchor="middle" x="357" y="148">4</text>
</g>
<g id="node12" class="node"><title>n1</title>
<ellipse cx="145" cy="339" rx="27" ry="18" style="fill:none;stroke:black;"/>
<text text-anchor="middle" x="145" y="344">1</text>
</g>
<g id="node14" class="node"><title>n2</title>
<ellipse cx="33" cy="303" rx="27" ry="18" style="fill:none;stroke:black;"/>
<text text-anchor="middle" x="33" y="308">2</text>
</g>
<g id="edge14" class="edge"><title>n1&#45;&gt;n2</title>
<path style="fill:none;stroke:black;" d="M121,331C102,326 85,320 67,314"/>
<polygon style="fill:black;stroke:black;" points="66,317 57,311 68,311 66,317"/>
</g>
<g id="node16" class="node"><title>n3</title>
<ellipse cx="33" cy="185" rx="27" ry="18" style="fill:none;stroke:black;"/>
<text text-anchor="middle" x="33" y="190">3</text>
</g>
<g id="edge16" class="edge"><title>n2&#45;&gt;n3</title>
<path style="fill:none;stroke:black;" d="M33,285C33,261 33,237 33,213"/>
<polygon style="fill:black;stroke:black;" points="30,213 33,203 37,213 30,213"/>
</g>
<g id="node18" class="node"><title>n4</title>
<ellipse cx="214" cy="244" rx="27" ry="18" style="fill:none;stroke:black;"/>
<text text-anchor="middle" x="214" y="249">4</text>
</g>
<g id="edge18" class="edge"><title>n3&#45;&gt;n4</title>
<path style="fill:none;stroke:black;" d="M58,193C99,206 139,220 179,233"/>
<polygon style="fill:black;stroke:black;" points="180,230 189,236 178,236 180,230"/>
</g>
<g id="edge20" class="edge"><title>n4&#45;&gt;n1</title>
<path style="fill:none;stroke:black;" d="M202,261C189,279 176,297 163,315"/>
<polygon style="fill:black;stroke:black;" points="166,317 157,323 160,313 166,317"/>
</g>
<g id="node21" class="node"><title>n5</title>
<ellipse cx="145" cy="149" rx="27" ry="18" style="fill:none;stroke:black;"/>
<text text-anchor="middle" x="145" y="154">5</text>
</g>
<g id="edge22" class="edge"><title>n4&#45;&gt;n5</title>
<path style="fill:none;stroke:black;" d="M202,227C189,209 176,191 163,173"/>
<polygon style="fill:black;stroke:black;" points="160,175 157,165 166,171 160,175"/>
</g>
<g id="edge24" class="edge"><title>n5&#45;&gt;n3</title>
<path style="fill:none;stroke:black;" d="M121,157C102,162 85,168 67,174"/>
<polygon style="fill:black;stroke:black;" points="68,177 57,177 66,171 68,177"/>
</g>
</g>
</svg>
