<?xml version="1.0" encoding="UTF-8" standalone="no"?>
<!DOCTYPE svg PUBLIC "-//W3C//DTD SVG 1.0//EN"
 "http://www.w3.org/TR/2001/REC-SVG-20010904/DTD/svg10.dtd">
<!-- Generated by circo version 1.16 (Mon Sep  8 09:23:59 GMT 2008)
     For user: (adrianneumann) Adrian Neumann   Title: G    Pages: 1 -->
<svg width="169pt" height="160pt"
 viewBox = "-1 -1 168 159"
 xmlns="http://www.w3.org/2000/svg">
<g id="graph0" class="graph" style="font-family:Times-Roman;font-size:14.00;">
<title>G</title>
<g id="node1" class="node"><title>v</title>
<ellipse cx="83" cy="76" rx="2" ry="2" style="fill:red;stroke:red;"/>
</g>
<g id="node2" class="node"><title>a</title>
<ellipse cx="159" cy="76" rx="2" ry="2" style="fill:blue;stroke:blue;"/>
</g>
<g id="edge2" class="edge"><title>a&#45;&#45;v</title>
<path style="fill:none;stroke:black;" d="M157,76C134,76 109,76 85,76"/>
</g>
<g id="node3" class="node"><title>b</title>
<ellipse cx="124" cy="12" rx="2" ry="2" style="fill:blue;stroke:blue;"/>
</g>
<g id="edge4" class="edge"><title>b&#45;&#45;v</title>
<path style="fill:none;stroke:black;" d="M123,14C110,33 97,55 84,74"/>
</g>
<g id="node4" class="node"><title>c</title>
<ellipse cx="51" cy="7" rx="2" ry="2" style="fill:blue;stroke:blue;"/>
</g>
<g id="edge6" class="edge"><title>c&#45;&#45;v</title>
<path style="fill:none;stroke:black;" d="M52,9C62,30 72,53 82,74"/>
</g>
<g id="node5" class="node"><title>d</title>
<ellipse cx="8" cy="65" rx="2" ry="2" style="fill:blue;stroke:blue;"/>
</g>
<g id="edge8" class="edge"><title>d&#45;&#45;v</title>
<path style="fill:none;stroke:black;" d="M10,65C33,68 57,73 81,76"/>
</g>
<g id="node6" class="node"><title>e</title>
<ellipse cx="33" cy="134" rx="2" ry="2" style="fill:blue;stroke:blue;"/>
</g>
<g id="edge10" class="edge"><title>e&#45;&#45;v</title>
<path style="fill:none;stroke:black;" d="M35,132C50,115 67,95 82,78"/>
</g>
<g id="node7" class="node"><title>f</title>
<ellipse cx="105" cy="149" rx="2" ry="2" style="fill:blue;stroke:blue;"/>
</g>
<g id="edge12" class="edge"><title>f&#45;&#45;v</title>
<path style="fill:none;stroke:black;" d="M104,147C98,125 90,101 84,78"/>
</g>
</g>
</svg>
