<?xml version="1.0" encoding="UTF-8" standalone="no"?>
<!-- Created with Inkscape (http://www.inkscape.org/) -->

<svg
   xmlns:dc="http://purl.org/dc/elements/1.1/"
   xmlns:cc="http://creativecommons.org/ns#"
   xmlns:rdf="http://www.w3.org/1999/02/22-rdf-syntax-ns#"
   xmlns:svg="http://www.w3.org/2000/svg"
   xmlns="http://www.w3.org/2000/svg"
   xmlns:sodipodi="http://sodipodi.sourceforge.net/DTD/sodipodi-0.dtd"
   xmlns:inkscape="http://www.inkscape.org/namespaces/inkscape"
   width="144.1324"
   height="85.5"
   id="svg2"
   version="1.1"
   inkscape:version="0.47+devel r9327"
   sodipodi:docname="New document 1">
  <defs
     id="defs4" />
  <sodipodi:namedview
     id="base"
     pagecolor="#ffffff"
     bordercolor="#666666"
     borderopacity="1.0"
     inkscape:pageopacity="0.0"
     inkscape:pageshadow="2"
     inkscape:zoom="4.5203822"
     inkscape:cx="66.99001"
     inkscape:cy="42.753311"
     inkscape:document-units="px"
     inkscape:current-layer="layer1"
     showgrid="false"
     inkscape:snap-object-midpoints="true"
     inkscape:snap-center="true"
     inkscape:object-nodes="true"
     inkscape:window-width="1276"
     inkscape:window-height="756"
     inkscape:window-x="4"
     inkscape:window-y="0"
     inkscape:window-maximized="0" />
  <metadata
     id="metadata7">
    <rdf:RDF>
      <cc:Work
         rdf:about="">
        <dc:format>image/svg+xml</dc:format>
        <dc:type
           rdf:resource="http://purl.org/dc/dcmitype/StillImage" />
        <dc:title></dc:title>
      </cc:Work>
    </rdf:RDF>
  </metadata>
  <g
     inkscape:label="Layer 1"
     inkscape:groupmode="layer"
     id="layer1"
     transform="translate(-154.9926,-37.09375)">
    <path
       style="fill:none;stroke:#000000;stroke-width:1px;stroke-linecap:butt;stroke-linejoin:miter;stroke-opacity:1"
       d="m 158.56686,80.165372 45.81542,-38.991848 90.65606,0 0,77.983696 -90.65606,0 z"
       id="path2915"
       inkscape:connector-curvature="0"
       sodipodi:nodetypes="cccccc" />
    <path
       style="fill:none;stroke:#000000;stroke-width:1px;stroke-linecap:butt;stroke-linejoin:miter;stroke-opacity:1"
       d="m 204.05735,41.173524 90.33112,77.333836"
       id="path2917"
       inkscape:connector-curvature="0" />
    <path
       inkscape:connector-curvature="0"
       id="path2919"
       d="M 294.38847,41.173524 204.05735,118.50736"
       style="fill:none;stroke:#000000;stroke-width:1px;stroke-linecap:butt;stroke-linejoin:miter;stroke-opacity:1" />
    <path
       style="fill:none;stroke:#000000;stroke-width:1px;stroke-linecap:butt;stroke-linejoin:miter;stroke-opacity:1"
       d="m 204.05735,40.523659 0,77.983701"
       id="path2921"
       inkscape:connector-curvature="0" />
    <path
       sodipodi:type="arc"
       style="fill:#000000;fill-opacity:1;fill-rule:nonzero;stroke:none"
       id="path2925"
       sodipodi:cx="45.815426"
       sodipodi:cy="64.243698"
       sodipodi:rx="3.5742531"
       sodipodi:ry="3.5742531"
       d="m 49.389679,64.243698 c 0,1.974006 -1.600248,3.574253 -3.574253,3.574253 -1.974006,0 -3.574253,-1.600247 -3.574253,-3.574253 0,-1.974005 1.600247,-3.574253 3.574253,-3.574253 1.974005,0 3.574253,1.600248 3.574253,3.574253 z"
       transform="translate(248.57304,54.263662)" />
    <path
       d="m 49.389679,64.243698 c 0,1.974006 -1.600248,3.574253 -3.574253,3.574253 -1.974006,0 -3.574253,-1.600247 -3.574253,-3.574253 0,-1.974005 1.600247,-3.574253 3.574253,-3.574253 1.974005,0 3.574253,1.600248 3.574253,3.574253 z"
       sodipodi:ry="3.5742531"
       sodipodi:rx="3.5742531"
       sodipodi:cy="64.243698"
       sodipodi:cx="45.815426"
       id="path3695"
       style="fill:#000000;fill-opacity:1;fill-rule:nonzero;stroke:none"
       sodipodi:type="arc"
       transform="translate(249.22291,-23.070174)" />
    <path
       sodipodi:type="arc"
       style="fill:#000000;fill-opacity:1;fill-rule:nonzero;stroke:none"
       id="path3697"
       sodipodi:cx="45.815426"
       sodipodi:cy="64.243698"
       sodipodi:rx="3.5742531"
       sodipodi:ry="3.5742531"
       d="m 49.389679,64.243698 c 0,1.974006 -1.600248,3.574253 -3.574253,3.574253 -1.974006,0 -3.574253,-1.600247 -3.574253,-3.574253 0,-1.974005 1.600247,-3.574253 3.574253,-3.574253 1.974005,0 3.574253,1.600248 3.574253,3.574253 z"
       transform="translate(158.24192,54.263662)" />
    <path
       d="m 49.389679,64.243698 c 0,1.974006 -1.600248,3.574253 -3.574253,3.574253 -1.974006,0 -3.574253,-1.600247 -3.574253,-3.574253 0,-1.974005 1.600247,-3.574253 3.574253,-3.574253 1.974005,0 3.574253,1.600248 3.574253,3.574253 z"
       sodipodi:ry="3.5742531"
       sodipodi:rx="3.5742531"
       sodipodi:cy="64.243698"
       sodipodi:cx="45.815426"
       id="path3699"
       style="fill:#000000;fill-opacity:1;fill-rule:nonzero;stroke:none"
       sodipodi:type="arc"
       transform="translate(158.56685,-23.070174)" />
    <path
       sodipodi:type="arc"
       style="fill:#000000;fill-opacity:1;fill-rule:nonzero;stroke:none"
       id="path3701"
       sodipodi:cx="45.815426"
       sodipodi:cy="64.243698"
       sodipodi:rx="3.5742531"
       sodipodi:ry="3.5742531"
       d="m 49.389679,64.243698 c 0,1.974006 -1.600248,3.574253 -3.574253,3.574253 -1.974006,0 -3.574253,-1.600247 -3.574253,-3.574253 0,-1.974005 1.600247,-3.574253 3.574253,-3.574253 1.974005,0 3.574253,1.600248 3.574253,3.574253 z"
       transform="translate(112.75143,15.921674)" />
    <path
       style="fill:none;stroke:#ff0000;stroke-width:1px;stroke-linecap:butt;stroke-linejoin:miter;stroke-opacity:1"
       d="M 158.56686,76.591119 200.80802,41.173524"
       id="path3705"
       inkscape:connector-curvature="0" />
    <path
       style="fill:none;stroke:#ff0000;stroke-width:1px;stroke-linecap:butt;stroke-linejoin:miter;stroke-opacity:1"
       d="m 204.38228,37.599271 90.65606,0"
       id="path3707"
       inkscape:connector-curvature="0" />
    <path
       style="fill:none;stroke:#ff0000;stroke-width:1px;stroke-linecap:butt;stroke-linejoin:miter;stroke-opacity:1"
       d="m 158.56686,83.739625 41.91623,34.767735"
       id="path3709"
       inkscape:connector-curvature="0" />
    <path
       style="fill:none;stroke:#ff0000;stroke-width:1px;stroke-linecap:butt;stroke-linejoin:miter;stroke-opacity:1"
       d="m 204.05735,122.08161 90.33112,0"
       id="path3711"
       inkscape:connector-curvature="0" />
    <path
       style="fill:none;stroke:#00ff00;stroke-width:1px;stroke-linecap:butt;stroke-linejoin:miter;stroke-opacity:1"
       d="m 162.14111,80.165372 41.91624,34.767738 87.40673,-73.759586"
       id="path3713"
       inkscape:connector-curvature="0" />
    <path
       style="fill:none;stroke:#00ff00;stroke-width:1px;stroke-linecap:butt;stroke-linejoin:miter;stroke-opacity:1"
       d="m 298.61259,41.173524 -0.64987,77.333836"
       id="path3715"
       inkscape:connector-curvature="0" />
    <path
       style="fill:none;stroke:#00ff00;stroke-width:1px;stroke-linecap:butt;stroke-linejoin:miter;stroke-opacity:1"
       d="m 204.38228,44.747777 90.65606,0"
       id="path3717"
       inkscape:connector-curvature="0" />
  </g>
</svg>
