<?xml version="1.0" encoding="UTF-8" standalone="no"?>
<!-- Generated by circo version 1.16 (Mon Sep  8 09:23:59 GMT 2008)
     For user: (adrianneumann) Adrian Neumann   Title: G    Pages: 1 -->

<svg
   xmlns:dc="http://purl.org/dc/elements/1.1/"
   xmlns:cc="http://creativecommons.org/ns#"
   xmlns:rdf="http://www.w3.org/1999/02/22-rdf-syntax-ns#"
   xmlns:svg="http://www.w3.org/2000/svg"
   xmlns="http://www.w3.org/2000/svg"
   xmlns:sodipodi="http://sodipodi.sourceforge.net/DTD/sodipodi-0.dtd"
   xmlns:inkscape="http://www.inkscape.org/namespaces/inkscape"
   width="220.40048"
   height="183.85992"
   viewBox="-1 -1 175.24526 146.0665"
   id="svg3960"
   version="1.1"
   inkscape:version="0.47+devel r9327"
   sodipodi:docname="ring.svg">
  <metadata
     id="metadata4029">
    <rdf:RDF>
      <cc:Work
         rdf:about="">
        <dc:format>image/svg+xml</dc:format>
        <dc:type
           rdf:resource="http://purl.org/dc/dcmitype/StillImage" />
        <dc:title></dc:title>
      </cc:Work>
    </rdf:RDF>
  </metadata>
  <defs
     id="defs4027" />
  <sodipodi:namedview
     pagecolor="#ffffff"
     bordercolor="#666666"
     borderopacity="1"
     objecttolerance="10"
     gridtolerance="10"
     guidetolerance="10"
     inkscape:pageopacity="0"
     inkscape:pageshadow="2"
     inkscape:window-width="1676"
     inkscape:window-height="1006"
     id="namedview4025"
     showgrid="false"
     inkscape:zoom="4.3611111"
     inkscape:cx="49.575652"
     inkscape:cy="109.26439"
     inkscape:window-x="4"
     inkscape:window-y="0"
     inkscape:window-maximized="0"
     inkscape:current-layer="svg3960" />
  <path
     style="opacity:0.50000000000000000;fill:#ff0101;fill-opacity:1;stroke:#000000;stroke-opacity:1;stroke-width:1.00026341;stroke-miterlimit:4;stroke-dasharray:1.00026341,1.00026341;stroke-dashoffset:0"
     d="M 39.327761,7.1364156 C 24.187104,16.051497 -21.674124,89.543711 9.7917665,99.208501 15.003404,100.71871 22.918875,98.479215 26.565295,94.832796 30.211714,91.186377 39.266123,45.650413 58.471462,34.119917 c 19.205339,-11.530496 50.958988,-0.156033 65.817868,0.364642 7.31514,0.256333 18.28038,-3.488397 19.1437,-10.756937 0,-23.9065454 -72.892273,-32.7326451 -104.105269,-16.5912064 z"
     id="path4031"
     inkscape:connector-curvature="0"
     sodipodi:nodetypes="cczzscc" />
  <path
     sodipodi:nodetypes="cczzscc"
     inkscape:connector-curvature="0"
     id="path4033"
     d="M 133.91751,7.1364155 C 149.05817,16.051497 194.91939,89.54371 163.4535,99.2085 158.24187,100.71871 150.3264,98.479215 146.67998,94.832796 143.03356,91.186377 133.97915,45.650413 114.77381,34.119917 95.568471,22.589421 63.814812,33.963884 48.955942,34.484559 c -7.31514,0.256333 -18.28039,-3.488397 -19.1437,-10.756937 0,-23.9065456 72.892268,-32.7326451 104.105268,-16.5912065 z"
     style="opacity:0.50000000000000000;fill:#ff0101;fill-opacity:1;stroke:#000000;stroke-opacity:1;stroke-width:1.00026341;stroke-miterlimit:4;stroke-dasharray:1.00026341,1.00026341;stroke-dashoffset:0" />
  <g
     id="graph0"
     class="graph"
     style="font-size:14px;font-family:Times-Roman"
     transform="translate(7.3276683,9.6300919)">
    <title
       id="title3963">G</title>
    <g
       id="node1"
       class="node">
      <title
         id="title3966">a</title>
      <ellipse
         cx="117"
         cy="133"
         rx="2"
         ry="2"
         style="fill:#000000;stroke:#000000"
         id="ellipse3968"
         sodipodi:cx="117"
         sodipodi:cy="133"
         sodipodi:rx="2"
         sodipodi:ry="2"
         d="m 119,133 c 0,1.10457 -0.89543,2 -2,2 -1.10457,0 -2,-0.89543 -2,-2 0,-1.10457 0.89543,-2 2,-2 1.10457,0 2,0.89543 2,2 z" />
    </g>
    <g
       id="node3"
       class="node">
      <title
         id="title3971">b</title>
      <ellipse
         cx="45"
         cy="133"
         rx="2"
         ry="2"
         style="fill:#000000;stroke:#000000"
         id="ellipse3973"
         sodipodi:cx="45"
         sodipodi:cy="133"
         sodipodi:rx="2"
         sodipodi:ry="2"
         d="m 47,133 c 0,1.10457 -0.895431,2 -2,2 -1.104569,0 -2,-0.89543 -2,-2 0,-1.10457 0.895431,-2 2,-2 1.104569,0 2,0.89543 2,2 z" />
    </g>
    <g
       id="edge2"
       class="edge">
      <title
         id="title3976">a--b</title>
      <path
         style="fill:none;stroke:#000000"
         d="m 115,133 c -22,0 -46,0 -68,0"
         id="path3978"
         inkscape:connector-curvature="0" />
    </g>
    <g
       id="node5"
       class="node">
      <title
         id="title3981">c</title>
      <ellipse
         cx="8"
         cy="70"
         rx="2"
         ry="2"
         style="fill:#000000;stroke:#000000"
         id="ellipse3983"
         sodipodi:cx="8"
         sodipodi:cy="70"
         sodipodi:rx="2"
         sodipodi:ry="2"
         d="m 10,70 c 0,1.104569 -0.8954305,2 -2,2 -1.1045695,0 -2,-0.895431 -2,-2 0,-1.104569 0.8954305,-2 2,-2 1.1045695,0 2,0.895431 2,2 z" />
    </g>
    <g
       id="edge4"
       class="edge">
      <title
         id="title3986">b--c</title>
      <path
         style="fill:none;stroke:#000000"
         d="M 44,131 C 32,112 21,91 9,72"
         id="path3988"
         inkscape:connector-curvature="0" />
    </g>
    <g
       id="node7"
       class="node">
      <title
         id="title3991">d</title>
      <ellipse
         cx="45"
         cy="7"
         rx="2"
         ry="2"
         style="fill:#000000;stroke:#000000"
         id="ellipse3993"
         sodipodi:cx="45"
         sodipodi:cy="7"
         sodipodi:rx="2"
         sodipodi:ry="2"
         d="m 47,7 c 0,1.1045695 -0.895431,2 -2,2 -1.104569,0 -2,-0.8954305 -2,-2 0,-1.1045695 0.895431,-2 2,-2 1.104569,0 2,0.8954305 2,2 z" />
    </g>
    <g
       id="edge6"
       class="edge">
      <title
         id="title3996">c--d</title>
      <path
         style="fill:none;stroke:#000000"
         d="M 9,68 C 21,49 32,28 44,9"
         id="path3998"
         inkscape:connector-curvature="0" />
    </g>
    <g
       id="node9"
       class="node">
      <title
         id="title4001">e</title>
      <ellipse
         cx="117"
         cy="7"
         rx="2"
         ry="2"
         style="fill:#000000;stroke:#000000"
         id="ellipse4003"
         sodipodi:cx="117"
         sodipodi:cy="7"
         sodipodi:rx="2"
         sodipodi:ry="2"
         d="m 119,7 c 0,1.1045695 -0.89543,2 -2,2 -1.10457,0 -2,-0.8954305 -2,-2 0,-1.1045695 0.89543,-2 2,-2 1.10457,0 2,0.8954305 2,2 z" />
    </g>
    <g
       id="edge8"
       class="edge">
      <title
         id="title4006">d--e</title>
      <path
         style="fill:none;stroke:#000000"
         d="m 47,7 c 23,0 46,0 68,0"
         id="path4008"
         inkscape:connector-curvature="0" />
    </g>
    <g
       id="node11"
       class="node">
      <title
         id="title4011">f</title>
      <ellipse
         cx="154"
         cy="70"
         rx="2"
         ry="2"
         style="fill:#000000;stroke:#000000"
         id="ellipse4013"
         sodipodi:cx="154"
         sodipodi:cy="70"
         sodipodi:rx="2"
         sodipodi:ry="2"
         d="m 156,70 c 0,1.104569 -0.89543,2 -2,2 -1.10457,0 -2,-0.895431 -2,-2 0,-1.104569 0.89543,-2 2,-2 1.10457,0 2,0.895431 2,2 z" />
    </g>
    <g
       id="edge10"
       class="edge">
      <title
         id="title4016">e--f</title>
      <path
         style="fill:none;stroke:#000000"
         d="m 118,9 c 12,19 23,40 35,59"
         id="path4018"
         inkscape:connector-curvature="0" />
    </g>
    <g
       id="edge12"
       class="edge">
      <title
         id="title4021">f--a</title>
      <path
         style="fill:none;stroke:#000000"
         d="m 153,72 c -12,19 -23,40 -35,59"
         id="path4023"
         inkscape:connector-curvature="0" />
    </g>
  </g>
</svg>
